<svg class="diagram-root" style="background: #f5f6f6" xmlns="http://www.w3.org/2000/svg" xmlns:xlink="http://www.w3.org/1999/xlink"><style>.diagram-root { font-family: "Helvetica Neue", sans-serif; font-size: 12px; } .t { overflow: visible; } .t-bg { y: 40; fill: #fff;   } .th { fill: #005aa0;   } .tht { fill: #fff; font-size: 14px;  } .tf { fill: #323c46; overflow: visible; } .tf.pk { fill: #005aa0; font-weight: bold; } .tf.fk { font-weight: bold; } .ty { fill: #adb1b5; font-weight: normal; text-anchor: end; } .r { fill: transparent; stroke: #c3c3c3; stroke-width: 1; } .l { stroke: 1; } .i { fill: #c2c7ce; stroke: #c2c7ce; } .i.ix { fill: #afb3b6; stroke: #000; } .fa { fill: transparent; overflow: visible; } .fa .bg.hover { fill: #f7f7f7; } .c { cy: 12; r: 4; stroke: #d2d2dc; fill: #d2d2dc; } .hr { fill: transparent; stroke: #323c46; stroke-opacity: 0.035; stroke-width: 13; } .dc { stroke: #fa5a3c; fill: #fa5a3c; } .x { stroke: white; stroke-width: 1; } .hl .th { fill: #1b9bff; } .hl .tht {  } .fhl .bg { fill: #e7f4ff; } .fhls .bg {  } .r.hl { stroke: #1b9bff; } .dim { opacity: 0.25; }</style><g class="drawing-wrapper" transform="translate(545.333333333333, 305.55777777777774) scale(1,1)"><g class="rs"><path d="M 291.15 131.44 m -1, 0 a 1,1 0 1,0 2,0 a 1,1 0 1,0 -2,0 M 291.15 131.44 m -0.5, 0 a 0.5,0.5 0 1,0 1,0 a 0.5,0.5 0 1,0 -1,0  M291.15 131.44 L291.15 131.44 303.15 131.44 M 291.15 137.44 m -1, 0 a 1,1 0 1,0 2,0 a 1,1 0 1,0 -2,0 M 291.15 137.44 m -0.5, 0 a 0.5,0.5 0 1,0 1,0 a 0.5,0.5 0 1,0 -1,0  M291.15 137.44 L291.15 137.44 298.15 131.44 291.15 125.44 M 291.15 125.44 m -1, 0 a 1,1 0 1,0 2,0 a 1,1 0 1,0 -2,0 M 291.15 125.44 m -0.5, 0 a 0.5,0.5 0 1,0 1,0 a 0.5,0.5 0 1,0 -1,0  M303.15 131.44 Q 326.87 131.44, 350.58 146.44 T 398 161.44 M 410 161.44 m -1, 0 a 1,1 0 1,0 2,0 a 1,1 0 1,0 -2,0 M 410 161.44 m -0.5, 0 a 0.5,0.5 0 1,0 1,0 a 0.5,0.5 0 1,0 -1,0  M410 161.44 L410 161.44 398 161.44 M404 167.44 L404 167.44 404 155.44" id="h841380887" class="r"></path><path d="M 444.33 -2.780000000000001 m -1, 0 a 1,1 0 1,0 2,0 a 1,1 0 1,0 -2,0 M 444.33 -2.780000000000001 m -0.5, 0 a 0.5,0.5 0 1,0 1,0 a 0.5,0.5 0 1,0 -1,0  M444.33 -2.780000000000001 L444.33 -2.780000000000001 432.33 -2.780000000000001 M438.33 3.219999999999999 L438.33 3.219999999999999 438.33 -8.780000000000001 M432.33 -2.780000000000001 Q 400.04 -2.780000000000001, 367.74 39.33 T 303.15 81.44 M 291.15 81.44 m -1, 0 a 1,1 0 1,0 2,0 a 1,1 0 1,0 -2,0 M 291.15 81.44 m -0.5, 0 a 0.5,0.5 0 1,0 1,0 a 0.5,0.5 0 1,0 -1,0  M291.15 81.44 L291.15 81.44 303.15 81.44 M297.15 87.44 L297.15 87.44 297.15 75.44" id="h2327164280" class="r"></path><path d="M -16.3 68.78 m -1, 0 a 1,1 0 1,0 2,0 a 1,1 0 1,0 -2,0 M -16.3 68.78 m -0.5, 0 a 0.5,0.5 0 1,0 1,0 a 0.5,0.5 0 1,0 -1,0  M-16.3 68.78 L-16.3 68.78 -4.300000000000001 68.78 M -16.3 74.78 m -1, 0 a 1,1 0 1,0 2,0 a 1,1 0 1,0 -2,0 M -16.3 74.78 m -0.5, 0 a 0.5,0.5 0 1,0 1,0 a 0.5,0.5 0 1,0 -1,0  M-16.3 74.78 L-16.3 74.78 -9.3 68.78 -16.3 62.78 M -16.3 62.78 m -1, 0 a 1,1 0 1,0 2,0 a 1,1 0 1,0 -2,0 M -16.3 62.78 m -0.5, 0 a 0.5,0.5 0 1,0 1,0 a 0.5,0.5 0 1,0 -1,0  M-4.300000000000001 68.78 Q 19.61 68.78, 43.52 75.11 T 91.33 81.44 M 103.33 81.44 m -1, 0 a 1,1 0 1,0 2,0 a 1,1 0 1,0 -2,0 M 103.33 81.44 m -0.5, 0 a 0.5,0.5 0 1,0 1,0 a 0.5,0.5 0 1,0 -1,0  M103.33 81.44 L103.33 81.44 91.33 81.44 M97.33 87.44 L97.33 87.44 97.33 75.44" id="h2909503179" class="r"></path><path d="M -274.88 -83 m -1, 0 a 1,1 0 1,0 2,0 a 1,1 0 1,0 -2,0 M -274.88 -83 m -0.5, 0 a 0.5,0.5 0 1,0 1,0 a 0.5,0.5 0 1,0 -1,0  M-274.88 -83 L-274.88 -83 -262.88 -83 M -274.88 -77 m -1, 0 a 1,1 0 1,0 2,0 a 1,1 0 1,0 -2,0 M -274.88 -77 m -0.5, 0 a 0.5,0.5 0 1,0 1,0 a 0.5,0.5 0 1,0 -1,0  M-274.88 -77 L-274.88 -77 -267.88 -83 -274.88 -89 M -274.88 -89 m -1, 0 a 1,1 0 1,0 2,0 a 1,1 0 1,0 -2,0 M -274.88 -89 m -0.5, 0 a 0.5,0.5 0 1,0 1,0 a 0.5,0.5 0 1,0 -1,0  M-262.88 -83 Q -241.32 -83, -219.77 -19.61 T -176.67 43.78 M -164.67 43.78 m -1, 0 a 1,1 0 1,0 2,0 a 1,1 0 1,0 -2,0 M -164.67 43.78 m -0.5, 0 a 0.5,0.5 0 1,0 1,0 a 0.5,0.5 0 1,0 -1,0  M-164.67 43.78 L-164.67 43.78 -176.67 43.78 M-170.67 49.78 L-170.67 49.78 -170.67 37.78" id="h962742500" class="r"></path><path d="M -1.75 -177.11 m -1, 0 a 1,1 0 1,0 2,0 a 1,1 0 1,0 -2,0 M -1.75 -177.11 m -0.5, 0 a 0.5,0.5 0 1,0 1,0 a 0.5,0.5 0 1,0 -1,0  M-1.75 -177.11 L-1.75 -177.11 10.25 -177.11 M -1.75 -171.11 m -1, 0 a 1,1 0 1,0 2,0 a 1,1 0 1,0 -2,0 M -1.75 -171.11 m -0.5, 0 a 0.5,0.5 0 1,0 1,0 a 0.5,0.5 0 1,0 -1,0  M-1.75 -171.11 L-1.75 -171.11 5.25 -177.11 -1.75 -183.11 M -1.75 -183.11 m -1, 0 a 1,1 0 1,0 2,0 a 1,1 0 1,0 -2,0 M -1.75 -183.11 m -0.5, 0 a 0.5,0.5 0 1,0 1,0 a 0.5,0.5 0 1,0 -1,0  M10.25 -177.11 C 60.25 -177.11, 68.98 43.78, -4.300000000000001 43.78 M -16.3 43.78 m -1, 0 a 1,1 0 1,0 2,0 a 1,1 0 1,0 -2,0 M -16.3 43.78 m -0.5, 0 a 0.5,0.5 0 1,0 1,0 a 0.5,0.5 0 1,0 -1,0  M-16.3 43.78 L-16.3 43.78 -4.300000000000001 43.78 M-10.3 49.78 L-10.3 49.78 -10.3 37.78" id="h1650775269" class="r"></path><path d="M -1.75 -152.11 m -1, 0 a 1,1 0 1,0 2,0 a 1,1 0 1,0 -2,0 M -1.75 -152.11 m -0.5, 0 a 0.5,0.5 0 1,0 1,0 a 0.5,0.5 0 1,0 -1,0  M-1.75 -152.11 L-1.75 -152.11 10.25 -152.11 M4.25 -146.11 L4.25 -146.11 4.25 -158.11 M10.25 -152.11 Q 29.55 -152.11, 48.85 -185.33 T 87.44 -218.56 M 99.44 -218.56 m -1, 0 a 1,1 0 1,0 2,0 a 1,1 0 1,0 -2,0 M 99.44 -218.56 m -0.5, 0 a 0.5,0.5 0 1,0 1,0 a 0.5,0.5 0 1,0 -1,0  M99.44 -218.56 L99.44 -218.56 87.44 -218.56 M93.44 -212.56 L93.44 -212.56 93.44 -224.56" id="h4170126259" class="r"></path><path d="M -353.68 224.22 m -1, 0 a 1,1 0 1,0 2,0 a 1,1 0 1,0 -2,0 M -353.68 224.22 m -0.5, 0 a 0.5,0.5 0 1,0 1,0 a 0.5,0.5 0 1,0 -1,0  M-353.68 224.22 L-353.68 224.22 -341.68 224.22 M -353.68 230.22 m -1, 0 a 1,1 0 1,0 2,0 a 1,1 0 1,0 -2,0 M -353.68 230.22 m -0.5, 0 a 0.5,0.5 0 1,0 1,0 a 0.5,0.5 0 1,0 -1,0  M-353.68 230.22 L-353.68 230.22 -346.68 224.22 -353.68 218.22 M -353.68 218.22 m -1, 0 a 1,1 0 1,0 2,0 a 1,1 0 1,0 -2,0 M -353.68 218.22 m -0.5, 0 a 0.5,0.5 0 1,0 1,0 a 0.5,0.5 0 1,0 -1,0  M-341.68 224.22 Q -300.42 224.22, -259.17 134 T -176.67 43.78 M -164.67 43.78 m -1, 0 a 1,1 0 1,0 2,0 a 1,1 0 1,0 -2,0 M -164.67 43.78 m -0.5, 0 a 0.5,0.5 0 1,0 1,0 a 0.5,0.5 0 1,0 -1,0  M-164.67 43.78 L-164.67 43.78 -176.67 43.78 M-170.67 49.78 L-170.67 49.78 -170.67 37.78" id="h265712937" class="r"></path><path d="M -12.97 300 m -1, 0 a 1,1 0 1,0 2,0 a 1,1 0 1,0 -2,0 M -12.97 300 m -0.5, 0 a 0.5,0.5 0 1,0 1,0 a 0.5,0.5 0 1,0 -1,0  M-12.97 300 L-12.97 300 -0.9700000000000006 300 M -12.97 306 m -1, 0 a 1,1 0 1,0 2,0 a 1,1 0 1,0 -2,0 M -12.97 306 m -0.5, 0 a 0.5,0.5 0 1,0 1,0 a 0.5,0.5 0 1,0 -1,0  M-12.97 306 L-12.97 306 -5.970000000000001 300 -12.97 294 M -12.97 294 m -1, 0 a 1,1 0 1,0 2,0 a 1,1 0 1,0 -2,0 M -12.97 294 m -0.5, 0 a 0.5,0.5 0 1,0 1,0 a 0.5,0.5 0 1,0 -1,0  M-0.9700000000000006 300 C 49.03 300, 51.028000000000006 43.78, -4.300000000000001 43.78 M -16.3 43.78 m -1, 0 a 1,1 0 1,0 2,0 a 1,1 0 1,0 -2,0 M -16.3 43.78 m -0.5, 0 a 0.5,0.5 0 1,0 1,0 a 0.5,0.5 0 1,0 -1,0  M-16.3 43.78 L-16.3 43.78 -4.300000000000001 43.78 M-10.3 49.78 L-10.3 49.78 -10.3 37.78" id="h4113667183" class="r"></path></g><g class="hrs"></g><g class="ts"><svg width="187.82" height="125" x="103.33" y="24.44" id="h3611598517" class="t"><rect height="40" width="187.82" class="th"></rect><text x="13" y="25" class="tht">LearningBuilding</text><rect height="85" width="187.82" class="t-bg" y="40"></rect><text x="13" y="61" class="tf pk">buildingID<tspan x="174.82" class="ty">int</tspan></text><path d="M7,14A2,2 0 0,1 5,12A2,2 0 0,1 7,10A2,2 0 0,1 9,12A2,2 0 0,1 7,14M12.65,10C11.83,7.67 9.61,6 7, 6A6, 6 0 0, 0 1, 12A6, 6 0 0, 0 7, 18C9.61, 18 11.83, 16.33 12.65, 14H17V18H21V14H23V10H12.65Z" class="i pk" transform="translate(138.3366664123535, 48) scale(0.65)"></path><text x="13" y="86" class="tf">buildingNumber<tspan x="174.82" class="ty">int</tspan></text><path d="M22,18V22H18V19H15V16H12L9.74,13.74C9.19,13.91 8.61,14 8,14A6,6 0 0,1 2,8A6,6 0 0,1 8,2A6,6 0 0,1 14,8C14,8.61 13.91, 9.19 13.74, 9.74L22, 18M7, 5A2, 2 0 0, 0 5, 7A2, 2 0 0, 0 7, 9A2, 2 0 0, 0 9, 7A2, 2 0 0, 0 7, 5Z" class="i uq" transform="translate(142.3366664123535, 75.5) scale(0.5)"></path><text x="13" y="111" class="tf fk">cratedBy<tspan x="174.82" class="ty">int</tspan></text></svg><svg width="153.62" height="125" x="444.33" y="-109.78" id="h1635167593" class="t"><rect height="40" width="153.62" class="th"></rect><text x="13" y="25" class="tht">Elevator</text><rect height="85" width="153.62" class="t-bg" y="40"></rect><text x="13" y="61" class="tf pk">elevatorID<tspan x="140.62" class="ty">int</tspan></text><path d="M7,14A2,2 0 0,1 5,12A2,2 0 0,1 7,10A2,2 0 0,1 9,12A2,2 0 0,1 7,14M12.65,10C11.83,7.67 9.61,6 7, 6A6, 6 0 0, 0 1, 12A6, 6 0 0, 0 7, 18C9.61, 18 11.83, 16.33 12.65, 14H17V18H21V14H23V10H12.65Z" class="i pk" transform="translate(104.13666641235352, 48) scale(0.65)"></path><text x="13" y="86" class="tf">capacity<tspan x="140.62" class="ty">INT</tspan></text><text x="13" y="111" class="tf fk">buildingID<tspan x="140.62" class="ty">int</tspan></text><path d="M22,18V22H18V19H15V16H12L9.74,13.74C9.19,13.91 8.61,14 8,14A6,6 0 0,1 2,8A6,6 0 0,1 8,2A6,6 0 0,1 14,8C14,8.61 13.91, 9.19 13.74, 9.74L22, 18M7, 5A2, 2 0 0, 0 5, 7A2, 2 0 0, 0 7, 9A2, 2 0 0, 0 9, 7A2, 2 0 0, 0 7, 5Z" class="i uq" transform="translate(108.13666641235352, 100.5) scale(0.5)"></path></svg><svg width="148.37" height="125" x="-164.67" y="-13.22" id="h1232249277" class="t"><rect height="40" width="148.37" class="th"></rect><text x="13" y="25" class="tht">Floor</text><rect height="85" width="148.37" class="t-bg" y="40"></rect><text x="13" y="61" class="tf pk">floorID<tspan x="135.37" class="ty">int</tspan></text><path d="M7,14A2,2 0 0,1 5,12A2,2 0 0,1 7,10A2,2 0 0,1 9,12A2,2 0 0,1 7,14M12.65,10C11.83,7.67 9.61,6 7, 6A6, 6 0 0, 0 1, 12A6, 6 0 0, 0 7, 18C9.61, 18 11.83, 16.33 12.65, 14H17V18H21V14H23V10H12.65Z" class="i pk" transform="translate(98.88666641235352, 48) scale(0.65)"></path><text x="13" y="86" class="tf fk">buildingID<tspan x="135.37" class="ty">int</tspan></text><path d="M22,18V22H18V19H15V16H12L9.74,13.74C9.19,13.91 8.61,14 8,14A6,6 0 0,1 2,8A6,6 0 0,1 8,2A6,6 0 0,1 14,8C14,8.61 13.91, 9.19 13.74, 9.74L22, 18M7, 5A2, 2 0 0, 0 5, 7A2, 2 0 0, 0 7, 9A2, 2 0 0, 0 9, 7A2, 2 0 0, 0 7, 5Z" class="i uq" transform="translate(102.88666641235352, 75.5) scale(0.5)"></path><text x="13" y="111" class="tf">floorNumber<tspan x="135.37" class="ty">int</tspan></text></svg><svg width="189.12" height="200" x="-464" y="-165" id="h452274459" class="t"><rect height="40" width="189.12" class="th"></rect><text x="13" y="25" class="tht">Classroom</text><rect height="160" width="189.12" class="t-bg" y="40"></rect><text x="13" y="61" class="tf pk">classroomID<tspan x="176.12" class="ty">int</tspan></text><path d="M7,14A2,2 0 0,1 5,12A2,2 0 0,1 7,10A2,2 0 0,1 9,12A2,2 0 0,1 7,14M12.65,10C11.83,7.67 9.61,6 7, 6A6, 6 0 0, 0 1, 12A6, 6 0 0, 0 7, 18C9.61, 18 11.83, 16.33 12.65, 14H17V18H21V14H23V10H12.65Z" class="i pk" transform="translate(139.63666641235352, 48) scale(0.65)"></path><text x="13" y="86" class="tf fk">floorID<tspan x="176.12" class="ty">int</tspan></text><text x="13" y="111" class="tf">capacity<tspan x="176.12" class="ty">int</tspan></text><text x="13" y="136" class="tf">numberOfchairs<tspan x="176.12" class="ty">int</tspan></text><text x="13" y="161" class="tf">classroomNumber<tspan x="176.12" class="ty">int</tspan></text><text x="13" y="186" class="tf">classSchedules<tspan x="176.12" class="ty">json</tspan></text></svg><svg width="186.58" height="200" x="-188.33" y="-259.11" id="h4225689948" class="t"><rect height="40" width="186.58" class="th"></rect><text x="13" y="25" class="tht">Locker</text><rect height="160" width="186.58" class="t-bg" y="40"></rect><text x="13" y="61" class="tf pk">lockerID<tspan x="173.58" class="ty">int</tspan></text><path d="M7,14A2,2 0 0,1 5,12A2,2 0 0,1 7,10A2,2 0 0,1 9,12A2,2 0 0,1 7,14M12.65,10C11.83,7.67 9.61,6 7, 6A6, 6 0 0, 0 1, 12A6, 6 0 0, 0 7, 18C9.61, 18 11.83, 16.33 12.65, 14H17V18H21V14H23V10H12.65Z" class="i pk" transform="translate(137.09666641235353, 48) scale(0.65)"></path><text x="13" y="86" class="tf fk">floorID<tspan x="173.58" class="ty">int</tspan></text><text x="13" y="111" class="tf fk">ownerID<tspan x="173.58" class="ty">int</tspan></text><text x="13" y="136" class="tf">itsBusy<tspan x="173.58" class="ty">boolean</tspan></text><text x="13" y="161" class="tf">obtainmentDate<tspan x="173.58" class="ty">date</tspan></text><text x="13" y="186" class="tf">expirationDate<tspan x="173.58" class="ty">date</tspan></text></svg><svg width="169.65" height="125" x="-523.33" y="142.22" id="h1413913579" class="t"><rect height="40" width="169.65" class="th"></rect><text x="13" y="25" class="tht">VendingMachines</text><rect height="85" width="169.65" class="t-bg" y="40"></rect><text x="13" y="61" class="tf pk">machineID<tspan x="156.65" class="ty">int</tspan></text><path d="M7,14A2,2 0 0,1 5,12A2,2 0 0,1 7,10A2,2 0 0,1 9,12A2,2 0 0,1 7,14M12.65,10C11.83,7.67 9.61,6 7, 6A6, 6 0 0, 0 1, 12A6, 6 0 0, 0 7, 18C9.61, 18 11.83, 16.33 12.65, 14H17V18H21V14H23V10H12.65Z" class="i pk" transform="translate(120.16666641235352, 48) scale(0.65)"></path><text x="13" y="86" class="tf fk">floorID<tspan x="156.65" class="ty">int</tspan></text><text x="13" y="111" class="tf">capacity<tspan x="156.65" class="ty">int</tspan></text></svg><svg width="164.03" height="150" x="-177" y="218" id="h2434679881" class="t"><rect height="40" width="164.03" class="th"></rect><text x="13" y="25" class="tht">Bathroom</text><rect height="110" width="164.03" class="t-bg" y="40"></rect><text x="13" y="61" class="tf pk">bathroomID<tspan x="151.03" class="ty">int</tspan></text><path d="M7,14A2,2 0 0,1 5,12A2,2 0 0,1 7,10A2,2 0 0,1 9,12A2,2 0 0,1 7,14M12.65,10C11.83,7.67 9.61,6 7, 6A6, 6 0 0, 0 1, 12A6, 6 0 0, 0 7, 18C9.61, 18 11.83, 16.33 12.65, 14H17V18H21V14H23V10H12.65Z" class="i pk" transform="translate(114.54666641235352, 48) scale(0.65)"></path><text x="13" y="86" class="tf fk">floorID<tspan x="151.03" class="ty">int</tspan></text><text x="13" y="111" class="tf">sex<tspan x="151.03" class="ty">string</tspan></text><text x="13" y="136" class="tf">capacity<tspan x="151.03" class="ty">int</tspan></text></svg><svg width="172.18" height="150" x="410" y="104.44" id="h1198131020" class="t"><rect height="40" width="172.18" class="th"></rect><text x="13" y="25" class="tht">Administrator</text><rect height="110" width="172.18" class="t-bg" y="40"></rect><text x="13" y="61" class="tf pk">AdminID<tspan x="159.18" class="ty">int</tspan></text><path d="M7,14A2,2 0 0,1 5,12A2,2 0 0,1 7,10A2,2 0 0,1 9,12A2,2 0 0,1 7,14M12.65,10C11.83,7.67 9.61,6 7, 6A6, 6 0 0, 0 1, 12A6, 6 0 0, 0 7, 18C9.61, 18 11.83, 16.33 12.65, 14H17V18H21V14H23V10H12.65Z" class="i pk" transform="translate(122.69666641235352, 48) scale(0.65)"></path><text x="13" y="86" class="tf">Name<tspan x="159.18" class="ty">String</tspan></text><text x="13" y="111" class="tf">password<tspan x="159.18" class="ty">String</tspan></text><text x="13" y="136" class="tf">username<tspan x="159.18" class="ty">String</tspan></text><path d="M22,18V22H18V19H15V16H12L9.74,13.74C9.19,13.91 8.61,14 8,14A6,6 0 0,1 2,8A6,6 0 0,1 8,2A6,6 0 0,1 14,8C14,8.61 13.91, 9.19 13.74, 9.74L22, 18M7, 5A2, 2 0 0, 0 5, 7A2, 2 0 0, 0 7, 9A2, 2 0 0, 0 9, 7A2, 2 0 0, 0 7, 5Z" class="i uq" transform="translate(102.41333358764649, 125.5) scale(0.5)"></path></svg><svg width="151.88" height="225" x="99.44" y="-275.56" id="h2268466501" class="t"><rect height="40" width="151.88" class="th"></rect><text x="13" y="25" class="tht">Student</text><rect height="185" width="151.88" class="t-bg" y="40"></rect><text x="13" y="61" class="tf pk">StudentID<tspan x="138.88" class="ty">int</tspan></text><path d="M7,14A2,2 0 0,1 5,12A2,2 0 0,1 7,10A2,2 0 0,1 9,12A2,2 0 0,1 7,14M12.65,10C11.83,7.67 9.61,6 7, 6A6, 6 0 0, 0 1, 12A6, 6 0 0, 0 7, 18C9.61, 18 11.83, 16.33 12.65, 14H17V18H21V14H23V10H12.65Z" class="i pk" transform="translate(102.39666641235351, 48) scale(0.65)"></path><text x="13" y="86" class="tf">name<tspan x="138.88" class="ty">String</tspan></text><text x="13" y="111" class="tf">faculty<tspan x="138.88" class="ty">String</tspan></text><text x="13" y="136" class="tf">gender<tspan x="138.88" class="ty">string</tspan></text><text x="13" y="161" class="tf">sex<tspan x="138.88" class="ty">string</tspan></text><text x="13" y="186" class="tf">age<tspan x="138.88" class="ty">int</tspan></text><text x="13" y="211" class="tf">level<tspan x="138.88" class="ty">string</tspan></text></svg></g></g><text class="qdbd-link" x="10" y="20">www.quickdatabasediagrams.com</text></svg>